<?xml version="1.0" encoding="UTF-8" standalone="no"?>
<!DOCTYPE svg PUBLIC "-//W3C//DTD SVG 1.1//EN" "http://www.w3.org/Graphics/SVG/1.1/DTD/svg11.dtd">
<!-- Created with Vectornator (http://vectornator.io/) -->
<svg height="100%" stroke-miterlimit="10" style="fill-rule:nonzero;clip-rule:evenodd;stroke-linecap:round;stroke-linejoin:round;" version="1.1" viewBox="0 0 1024 1024" width="100%" xml:space="preserve" xmlns="http://www.w3.org/2000/svg" xmlns:vectornator="http://vectornator.io" xmlns:xlink="http://www.w3.org/1999/xlink">
<defs/>
<g id="レイヤー-2" vectornator:layerName="レイヤー 2">
<path d="M0 0L1024 0L1024 1024L0 1024L0 0Z" fill="#ed6d48" fill-rule="nonzero" opacity="1" stroke="none"/>
</g>
<g id="レイヤー-1" vectornator:layerName="レイヤー 1">
<path d="M227.646 312.831C94.9718 394.621 59.1734 576.68 145.868 710.296L285.399 925.327C304.822 955.261 344.43 964.03 373.931 944.89L446.368 897.858C450.476 895.193 451.658 889.716 448.993 885.608L336.931 712.921C333.747 708.014 327.213 706.611 322.306 709.796L251.712 755.577L199.681 675.358C133.466 573.307 160.092 437.787 258.556 370.546" fill="#ffffff" fill-rule="nonzero" opacity="1" stroke="none"/>
<path d="M249.763 354.146C326.175 304.704 451.842 364.864 518.993 468.358L571.056 548.608L511.462 587.265L629.962 769.89C632.251 773.418 636.965 774.398 640.493 772.108L694.118 737.327C716.331 722.914 718.527 687.021 699.118 657.108L559.587 442.046C497.285 346.025 401.788 289.784 316.306 289.546C284.615 289.458 246.382 301.026 227.381 312.995" fill="#ffffff" fill-rule="nonzero" opacity="1" stroke="none"/>
<path d="M512.25 28.9375C504.161 28.9375 494.842 30.5127 485.812 35.3125C476.773 40.1174 470.598 46.792 466.438 52.6562C458.819 63.396 455.512 73.6126 452.125 82.0625C441.223 109.224 421.048 155.401 394.938 180.688C394.763 180.857 394.629 180.999 394.469 181.156C394.442 181.183 394.433 181.223 394.406 181.25C393.91 181.739 393.407 182.204 392.969 182.75C362.268 214.259 350.759 250.837 346.188 275.312C323.046 292.757 282.052 324.531 241.812 361.344C178.099 413.652 104.363 492.069 100.719 495.938C100.708 495.949 100.698 495.958 100.688 495.969C90.1392 507.217 82.897 524.083 85.8125 542.938C86.5279 547.6 99.491 627.093 148.062 712.188C196.229 796.572 282.9 889.064 427.844 904.656C428.26 904.701 428.645 904.8 429.062 904.844C429.596 904.945 429.602 904.993 430.75 905.094C434.144 905.393 436.814 905.26 438.906 905.031C448.49 904.563 461.299 901.733 472.594 891.844C472.643 891.801 472.701 891.762 472.75 891.719C472.923 891.564 473.082 891.379 473.25 891.219C473.261 891.209 473.27 891.198 473.281 891.188C485.042 880.502 491.367 865.716 491.75 850.75C491.75 850.742 491.75 850.727 491.75 850.719C491.823 847.95 493.25 791.206 493.25 769.25C493.25 751.132 499.434 731.243 508.469 718.375C517.684 705.249 526.733 700.781 536.719 700.781C568.601 700.781 624.443 714.242 679.281 738C679.572 738.126 681.986 739.11 679.906 738.25C704.015 748.224 726.804 754.251 749.656 754.25C785.678 754.25 811.02 738.188 825.594 726.938C825.599 726.934 826.148 726.529 826.781 726C829.547 723.693 832.386 721.418 835.531 719C836.006 718.635 836.466 718.25 836.906 717.844C836.906 717.844 836.906 717.813 836.906 717.812C854.259 704.395 880.794 682.746 914.438 636.844C942.45 618.666 967.376 591.173 965.031 552.844C965.03 552.828 965.001 552.828 965 552.812C962.463 512.891 932.27 487.652 899.844 472.156C869.051 438.614 825.894 405.172 780.094 378.094C773.712 357.815 759.462 318.567 713.125 292.219C713.084 292.195 713.041 292.179 713 292.156C712.745 292.006 712.145 291.627 710.875 291.031C710.853 291.021 710.835 291.01 710.812 291C703.581 286.938 695.904 283.179 688.031 279.594C690.945 268.838 696.496 176.688 692.938 148.719C691.155 134.708 688.75 121.945 685.469 110.594C682.546 100.484 678.459 87.6685 668.156 76.4375C659.286 66.7736 644.881 57.4373 626.219 57.4375C621.488 57.4375 613.962 57.9015 605.562 61.1562C597.299 64.3585 590.929 69.1902 586.094 73.75C583.524 76.1732 581.104 78.7516 578.719 81.4688C574.012 72.7803 568.888 64.6594 563.094 57.4375C555.004 47.3535 538.886 28.9359 512.25 28.9375Z" fill="#ed6d48" fill-rule="nonzero" opacity="1" stroke="none"/>
<path d="M512.243 48.9521C506.701 48.9521 500.77 50.0287 495.212 52.9833C489.656 55.9364 485.638 60.153 482.743 64.2333C477.171 72.0886 474.368 80.3158 470.681 89.5146C459.634 117.035 439.198 165.641 408.837 195.046C408.661 195.216 408.632 195.281 408.618 195.296C377.415 226.483 367.786 264.446 364.587 286.452C343.408 302.282 298.2 336.866 255.306 376.108C192.976 427.131 118.687 506.017 115.274 509.64C108.284 517.094 103.751 528.016 105.587 539.89C106.065 543.004 118.746 620.477 165.431 702.265C211.903 783.682 293.846 870.635 431.149 884.952C431.232 884.97 431.316 884.967 431.399 884.983C431.756 885.054 432.131 885.139 432.493 885.171C434.871 885.381 436.438 885.243 437.181 885.14C443.912 884.92 452.244 883.088 459.431 876.796C459.453 876.776 459.471 876.753 459.493 876.733C459.605 876.634 459.695 876.521 459.806 876.421C467.374 869.555 471.5 859.958 471.743 850.233C471.811 847.656 473.243 790.63 473.243 769.265C473.243 747.082 480.323 723.645 492.087 706.89C503.891 690.077 518.932 680.796 536.712 680.796C573.184 680.796 630.565 695.085 687.243 719.64C687.719 719.846 687.524 719.765 687.524 719.765C687.528 719.766 687.552 719.763 687.556 719.765C710.232 729.146 730.395 734.265 749.649 734.265C779.503 734.265 800.327 721.176 813.368 711.108C813.559 710.961 813.728 710.835 813.962 710.64C816.935 708.159 819.996 705.708 823.337 703.14C823.34 703.137 823.334 703.111 823.337 703.108C840.572 689.824 866.051 669.801 900.462 622.171C927.454 605.546 946.832 583.116 945.056 554.077C943.134 523.839 919.308 502.75 887.743 488.483C857.269 454.476 811.375 418.964 763.337 391.39C762.818 389.807 762.312 388.189 761.774 386.452C755.989 367.758 744.768 333.179 703.118 309.546C702.876 309.406 702.622 309.258 702.368 309.14C702.368 309.14 702.541 309.231 702.274 309.108C689.535 301.841 674.625 295.135 659.493 289.108C663.371 286.6 666.464 282.82 667.868 278.015C670.984 267.351 673.367 255.552 674.587 243.421C674.763 241.67 674.648 242.897 674.618 243.171C674.619 243.166 674.618 243.145 674.618 243.14C677.492 210.096 676.456 177.711 673.087 151.233C671.399 137.972 669.132 126.136 666.243 116.14C663.469 106.543 660.236 97.3703 653.431 89.9521C647.357 83.3355 637.891 77.4519 626.212 77.4521C622.783 77.4521 617.97 77.7825 612.774 79.7958C607.63 81.7891 603.421 84.8863 599.806 88.2958C592.706 94.9916 585.996 104.033 574.587 119.64C574.487 119.777 574.433 119.938 574.337 120.077C572.957 116.457 571.558 112.877 570.087 109.452C563.453 94.0156 555.958 80.5039 547.493 69.9521C539.903 60.4905 528.729 48.9511 512.243 48.9521Z" fill="#ed6d48" fill-rule="nonzero" opacity="1" stroke="none"/>
<path d="M512.23 68.9657C500.058 68.9657 496.899 77.8433 489.237 96.9574C478.105 124.693 457.275 175.994 422.757 209.424C392.062 240.103 384.884 280.205 383.269 297.398C367.591 309.005 324.761 341.278 282.828 378.275C278.129 382.422 273.44 386.627 268.803 390.87C262.747 395.811 256.553 401.045 250.304 406.47C193.721 455.595 132.695 520.304 129.844 523.331C126.469 526.93 124.594 531.966 125.345 536.827C125.809 539.85 175.115 839.013 434.254 865.229C434.797 865.277 435.209 865.231 435.753 865.229C439.624 865.229 443.307 864.307 446.25 861.73C449.577 858.787 451.637 854.182 451.748 849.734C451.812 847.302 453.248 790.017 453.248 769.258C453.248 716.937 485.347 660.79 536.723 660.79C577.703 660.79 636.729 675.957 695.176 701.278C716.402 710.059 734.032 714.275 749.66 714.274C773.429 714.274 789.564 704.22 801.145 695.28C804.328 692.624 807.607 690 811.142 687.282C828.448 673.942 851.99 655.982 886.619 607.306C913.411 591.758 926.275 574.402 925.108 555.321C923.844 535.439 907.278 518.21 875.622 504.836C846.143 470.942 797.533 433.194 747.66 405.366C746.189 403.91 744.166 397.232 742.662 392.37C737.064 374.279 728.431 346.868 693.177 326.889C658.851 307.087 599.429 288.875 575.212 281.902C574.348 271.17 573.213 250.822 573.212 217.422C573.212 148.45 536.239 68.9643 512.23 68.9657ZM653.189 403.366C670.847 403.366 685.179 417.698 685.179 435.357C685.179 453.016 670.847 467.348 653.189 467.347C635.53 467.347 621.198 453.016 621.198 435.357C621.198 417.698 635.53 403.366 653.189 403.366Z" fill="#ffffff" fill-rule="nonzero" opacity="1" stroke="none"/>
<path d="M626.197 97.4572C617.111 97.4572 613.324 100.51 590.707 131.447C600.112 161.598 605.203 193.302 605.203 217.422C605.203 234.009 605.335 247.577 605.703 257.91C618.707 261.956 633.815 266.951 648.69 272.405C651.457 262.936 653.599 252.245 654.688 241.414C660.174 178.393 650.754 116.603 638.693 103.455C635.654 100.144 630.675 97.4572 626.197 97.4572Z" fill="#ffffff" fill-rule="nonzero" opacity="1" stroke="none"/>
<path d="M172.406 309.281C166.754 308.918 157.682 310.377 150.781 317.219C101.303 366.275 69.966 429.018 58.625 495.406C44.9476 575.471 60.3338 661.124 108.125 734.781C125.566 761.66 160.434 815.434 177.875 842.312C195.316 869.191 230.215 922.934 247.656 949.812C263.971 974.956 288.954 991.44 316.156 997.469C343.264 1003.48 372.846 999.108 398.125 982.812C398.233 982.745 398.362 982.725 398.469 982.656C407.52 976.777 425.605 965.004 434.656 959.125C443.702 953.25 461.787 941.507 470.844 935.625C483.235 927.585 491.329 915.168 494.219 901.75C497.109 888.331 494.848 873.605 486.75 861.125C472.742 839.539 444.727 796.367 430.719 774.781C416.711 753.195 388.695 710.023 374.688 688.438C366.377 675.63 353.539 667.314 339.688 664.344C325.838 661.374 310.671 663.719 297.812 672.062C291.086 676.426 277.633 685.137 270.906 689.5C269.423 690.462 266.962 692.051 264.969 693.344C262.445 689.454 259.743 685.28 258 682.594C252.855 674.664 242.582 658.805 237.438 650.875C210.384 609.18 196.149 556.817 202.058 512C210.418 448.603 241.633 413.902 250.304 406.47C261.09 397.227 209.48 330.42 200.188 322.75C195.491 318.873 191.002 315.446 184.938 312.625C181.893 311.209 178.11 309.648 172.406 309.281Z" fill="#ed6d48" fill-rule="nonzero" opacity="1" stroke="none"/>
<path d="M168.373 334.987C122.736 380.235 93.7614 438.173 83.2639 499.623C70.6036 573.734 84.8179 652.953 129.087 721.182L198.853 828.698L268.619 936.213C281.266 955.705 300.565 968.397 321.576 973.053C342.588 977.71 365.311 974.331 384.806 961.682C384.807 961.681 384.814 961.682 384.822 961.682C384.829 961.682 384.837 961.682 384.837 961.682L421.041 938.166L457.244 914.651C463.909 910.326 468.218 903.704 469.773 896.486C471.328 889.267 470.128 881.453 465.775 874.744L409.744 788.401L353.712 702.057C349.123 694.983 342.1 690.423 334.451 688.783C326.802 687.143 318.526 688.422 311.431 693.026L284.525 710.479L257.619 727.932L237.041 696.213L216.462 664.494C185.818 617.264 176.499 562.367 186.407 511.774C193.38 476.161 209.88 442.681 235.174 415.509C245.813 404.079 177.776 325.664 168.373 334.987Z" fill="#ed6d48" fill-rule="nonzero" opacity="1" stroke="none"/>
<path d="M227.646 312.831C211.6 322.723 196.971 334.082 183.804 346.644C88.1043 437.951 69.6586 592.84 145.868 710.296L285.399 925.327C304.822 955.261 344.43 964.03 373.931 944.89L446.368 897.858C450.476 895.193 451.658 889.716 448.993 885.608L336.931 712.921C333.747 708.014 327.213 706.611 322.306 709.796L251.712 755.577L199.681 675.358C139.958 583.313 150.062 429.651 234.875 367.17" fill="#ffffff" fill-rule="nonzero" opacity="1" stroke="none"/>
<g opacity="1"/>
</g>
</svg>
